<?xml version="1.0" encoding="UTF-8"?>
<!-- Generator: visioncortex VTracer 0.6.4 -->
<svg version="1.1" xmlns="http://www.w3.org/2000/svg" width="476" height="700">
<path d="M0 0 C2.74 0 4.47 0.06 7 1 C8.9 2.9 10.5 4.95 12.17 7.06 C15.06 10.12 18.01 10.8 22 12 C22.99 12.66 23.98 13.32 25 14 C27.34 14.64 27.34 14.64 29.88 15.06 C30.72 15.22 31.56 15.37 32.43 15.54 C33.7 15.77 33.7 15.77 35 16 C35.88 16.2 36.75 16.39 37.66 16.6 C40.79 17.13 42.27 16.58 45 15 C48.33 10.96 48.57 7.05 49 2 C49.66 2 50.32 2 51 2 C51.59 3.33 51.59 3.33 52.19 4.69 C53.83 8.11 53.83 8.11 56.69 10.5 C59 13 59 13 59.81 15.81 C58.86 19.56 57.79 20.26 54.94 22.75 C51.74 25.58 51.74 25.58 50.76 29.56 C51 31.3 51.29 33.03 51.63 34.75 C52.11 37.67 51.16 39.33 50 42 C50.18 44.81 50.18 44.81 50.58 46.77 C51.35 50.85 51.83 54.99 52.4 59.11 C52.85 62.18 52.85 62.18 55 65 C58.08 65.25 58.08 65.25 61 65 C61.17 65.57 61.34 66.13 61.52 66.71 C61.76 67.45 62 68.18 62.25 68.94 C62.48 69.67 62.71 70.4 62.95 71.15 C63.85 73.21 63.85 73.21 66.11 73.75 C67.05 73.88 67.05 73.88 68 74 C67.49 78.87 65.91 82.89 64.03 87.35 C63.03 89.93 62.35 92.45 61.69 95.12 C60.34 99.9 57.97 102.72 54.57 106.26 C52.7 108.34 51.98 110.41 51 113 C49.33 114.67 47.67 116.33 46 118 C44.98 119.99 43.98 121.99 43 124 C40.16 125.89 39.18 126.26 36 126.75 C30.18 127.96 24.74 130.41 20 134 C18.54 136.47 18.54 136.47 18 139 C18.33 139.66 18.66 140.32 19 141 C21.53 141.66 21.53 141.66 24 142 C24.18 145.94 24.22 148.67 22 152 C21.36 152.62 20.72 153.24 20.06 153.88 C17.82 155.98 17.82 155.98 16.44 159.12 C15 162 15 162 12 164 C11.07 168.79 13.41 171.15 16 175 C17.49 178.72 18.58 182.57 19.71 186.4 C21.15 191.04 22.61 194.38 26 198 C24.35 198.99 22.7 199.98 21 201 C21.63 207.21 23.14 212.35 26.75 217.5 C28.47 220.94 27.79 223.32 27 227 C27.56 227.06 28.11 227.12 28.69 227.19 C31 228 31 228 33.31 230.38 C36.45 233.44 38.81 234.72 43 236 C45.79 235.95 48.24 235.53 51 235 C50.39 231.44 49.42 228.32 48 225 C49.32 224.34 50.64 223.68 52 223 C52.33 224.32 52.66 225.64 53 227 C53.99 226.67 54.98 226.34 56 226 C56.45 224.89 56.91 223.77 57.38 222.62 C59.21 218.54 60.08 217.88 64 216 C69.36 214.89 74.1 214.9 78.9 217.69 C81.4 219.69 83.73 221.74 86 224 C86.57 224.53 87.13 225.06 87.71 225.61 C89.47 227.51 90.07 229.61 91 232 C91.58 232.58 92.15 233.16 92.75 233.75 C94.33 236.59 93.87 237.53 93.12 240.62 C92.9 241.4 92.68 242.18 92.45 242.98 C91.77 245.06 91.77 245.06 93 247 C97.13 246.43 97.13 246.43 101 245 C101.22 239.79 101.22 239.79 100.25 234.75 C100.17 234.17 100.09 233.59 100 233 C101.94 230.75 101.94 230.75 104 229 C104.99 229.33 105.98 229.66 107 230 C107.39 230.85 107.78 231.69 108.19 232.56 C108.79 233.37 109.38 234.17 110 235 C111.99 235.03 113.98 235.05 115.96 234.93 C119.34 235.05 121.34 237.03 124 239 C127.29 240.75 130.64 242.38 134 244 C134 244.99 134 245.98 134 247 C128.28 250.82 122.7 250.29 116 250 C116.5 253.73 117.05 255.47 120 257.81 C122.63 260.23 123.46 261.82 123.88 265.38 C123.92 266.57 123.96 267.77 124 269 C125.32 269.33 126.64 269.66 128 270 C127.67 268.68 127.34 267.36 127 266 C133.69 266 139.45 269.42 145 273 C144.67 273.99 144.34 274.98 144 276 C140.94 276.54 138.11 277 135 277 C137.73 280.29 137.73 280.29 141.75 281.25 C142.49 281.17 143.24 281.08 144 281 C143.71 283.02 143.41 285.04 143.12 287.05 C142.83 289.08 142.83 289.08 144 291 C144.14 294.07 144.09 296.65 143.31 299.62 C142.73 302.11 142.73 302.11 144.44 304.31 C144.95 304.87 145.47 305.43 146 306 C146.93 305.79 147.86 305.59 148.81 305.38 C152 305 152 305 155 307 C158.26 307.32 158.26 307.32 161.88 307.25 C163.09 307.26 164.3 307.26 165.55 307.27 C168.87 307.01 170.98 306.3 174 305 C176.34 304.7 178.65 304.56 181.01 304.44 C183.4 304.15 183.4 304.15 185 301 C188.36 301.3 189.75 301.75 192.2 304.14 C193.22 305.47 193.22 305.47 194.25 306.81 C195.28 308.12 195.28 308.12 196.33 309.46 C198 312 198 312 198.48 314.15 C199.23 316.83 200.7 317.4 203.06 318.75 C203.8 319.18 204.53 319.61 205.29 320.05 C205.85 320.36 206.42 320.68 207 321 C206.13 332.37 206.13 332.37 205.31 336.19 C204.92 339.68 205.67 342.4 206.54 345.77 C207 348 207 348 206.75 351.56 C207.03 355.44 207.73 356.22 210.12 359.12 C211.79 361.14 211.79 361.14 213 363 C212.44 365.81 212.44 365.81 211 368 C210.67 368.99 210.34 369.98 210 371 C210.7 371 211.4 371 212.12 371 C216.57 372.54 218.59 376.08 221 380 C221.33 380.99 221.66 381.98 222 383 C221.01 383 220.02 383 219 383 C218.07 382.04 218.07 382.04 217.12 381.06 C214.68 378.69 213.37 378.17 210 378 C209.01 378.66 208.02 379.32 207 380 C204.66 379.98 204.66 379.98 202.06 379.62 C198.96 379.22 196.15 379 193 379 C192.34 376.03 191.68 373.06 191 370 C189.02 370 187.04 370 185 370 C185.01 371.13 185.02 372.26 185.04 373.43 C185.04 374.91 185.05 376.39 185.06 377.88 C185.07 378.62 185.08 379.37 185.09 380.14 C185.11 385.77 185.11 385.77 184 388 C183.42 391.37 183.42 391.37 184 395 C186.8 397.81 186.8 397.81 190 400 C192.05 403.07 192.22 403.89 192.38 407.38 C192.74 411.75 194.13 413.65 197 417 C196.94 419.25 196.94 419.25 196 421 C195.01 421.33 194.02 421.66 193 422 C193.42 424.55 193.81 426.66 195.06 428.94 C196.31 431.69 196.14 434.02 196 437 C193 437 193 437 190.38 435.06 C187.59 431.47 187.5 429.53 187.23 425.16 C186.91 422.18 185.87 420.3 184 418 C183.01 417.67 182.02 417.34 181 417 C181.13 417.58 181.27 418.16 181.4 418.76 C182.4 423.16 183.31 427.54 184 432 C178.41 432 174.95 429.92 171 426 C169.64 422.7 169.31 419.54 169 416 C168.6 414.55 168.6 414.55 168.19 413.06 C167.93 408.94 169.12 405.58 170.41 401.68 C171.07 398.7 170.87 396.9 170 394 C169.04 392.64 168.04 391.3 167 390 C166.67 389.01 166.34 388.02 166 387 C162.12 386.57 162.12 386.57 160.25 388.5 C159.84 389 159.43 389.49 159 390 C154.12 388.25 154.12 388.25 153 386 C152.97 382.98 153.07 379.97 153.16 376.95 C153 373.96 152.48 372.53 151 370 C149.51 365.35 148.59 360.84 148 356 C152.82 358.55 156.16 361.06 160 365 C162.27 367.04 162.27 367.04 165 368 C168.7 367.51 168.7 367.51 172 366 C172.66 365.01 173.32 364.02 174 363 C177.12 362.31 177.12 362.31 180 362 C178.07 359.78 178.07 359.78 175 359 C175.69 357.06 175.69 357.06 177 355 C179.63 354.25 179.63 354.25 182 354 C182.66 351.03 183.32 348.06 184 345 C183.15 345.12 182.31 345.25 181.44 345.38 C176.57 344.84 174.38 342.35 171 339 C169.89 337.92 169.89 337.92 168.75 336.81 C167 335 167 335 165.69 333.38 C163.92 331.71 163.92 331.71 160.66 331.38 C156.32 329.74 155.67 328.57 153.74 324.59 C153.28 323.56 153.28 323.56 152.81 322.5 C150.66 317.43 150.66 317.43 146.95 313.53 C144.85 312.87 144.85 312.87 142 313 C141.34 311.35 140.68 309.7 140 308 C138.97 308.02 137.94 308.04 136.88 308.06 C134.13 307.68 133.14 307.14 131.16 305.14 C128.61 301.57 127.06 299.06 126.81 294.62 C128.3 291.33 129.73 290.44 133 289 C133.66 289 134.32 289 135 289 C134.67 287.68 134.34 286.36 134 285 C130.87 285.95 128.21 286.87 125.44 288.62 C122.55 290.25 121.27 290.47 118 290 C113.81 288.46 110.51 286.69 107 284 C106.11 283.71 105.23 283.42 104.31 283.12 C102 282 102 282 101.19 279.69 C101 277 101 277 101.12 274.38 C100.97 271.36 100.17 271.01 98 269 C97.5 267.99 97.01 266.98 96.5 265.94 C95.18 262.77 95.18 262.77 92 261 C90.91 260.73 89.81 260.46 88.69 260.19 C84.15 258.73 82.21 257.52 79 254 C78.62 250.19 78.62 250.19 79 247 C78.06 246.67 78.06 246.67 77.1 246.34 C70.33 243.71 70.33 243.71 68.5 239.81 C68.34 238.88 68.17 237.96 68 237 C67.67 236.67 67.34 236.34 67 236 C64.99 236.29 62.99 236.62 61 237 C61.57 240.93 61.57 240.93 64 244 C63.98 244.93 63.96 245.86 63.94 246.81 C64.01 250.54 64.77 252.05 67 255 C67.68 255.5 68.36 255.99 69.06 256.5 C71.6 258.46 72.16 259.92 73 263 C73.45 268.04 72.99 270.89 70 275 C67.62 274.82 67.62 274.82 65 274 C63.81 271.71 63.81 271.71 63 268.81 C60.97 262.47 58.64 258.76 53 255 C52.03 254.98 51.06 254.96 50.06 254.94 C49.05 254.63 48.04 254.32 47 254 C46.04 252.04 46.04 252.04 45.19 249.62 C43.87 246.04 43.87 246.04 40.89 243.84 C39.32 243.37 37.73 242.93 36.13 242.54 C33.53 241.88 31.86 240.94 30 239 C30 238.01 30 237.02 30 236 C23.76 236.64 18.54 239.23 13 242 C12.92 243.26 12.83 244.52 12.75 245.81 C12.38 249.45 12.15 249.86 9.31 252.56 C5.45 254.24 4.01 254.06 0 253 C-2.33 252.66 -4.67 252.33 -7 252 C-7.66 250.35 -8.32 248.7 -9 247 C-10.98 247.35 -10.98 247.35 -13 248 C-13.33 248.66 -13.66 249.32 -14 250 C-14.99 249.67 -15.98 249.34 -17 249 C-16.67 245.37 -16.34 241.74 -16 238 C-18.31 238 -20.62 238 -23 238 C-23.99 240.31 -24.98 242.62 -26 245 C-26.99 244.67 -27.98 244.34 -29 244 C-29.22 241.1 -29.43 238.21 -29.62 235.31 C-29.69 234.5 -29.75 233.68 -29.82 232.84 C-30.35 224.65 -30.35 224.65 -28 221 C-26.05 220.14 -26.05 220.14 -23.75 219.69 C-18.8 218.33 -16.96 216.01 -14.29 211.74 C-13 210 -13 210 -10 209 C-10 206.36 -10 203.72 -10 201 C-10.99 200.67 -11.98 200.34 -13 200 C-13.69 197.94 -13.69 197.94 -14 196 C-15.14 195.93 -15.14 195.93 -16.3 195.85 C-17.29 195.78 -18.29 195.7 -19.31 195.62 C-20.3 195.56 -21.28 195.49 -22.3 195.41 C-25 195 -25 195 -28 193 C-27.89 194.11 -27.79 195.22 -27.68 196.36 C-27.55 197.82 -27.43 199.29 -27.31 200.75 C-27.24 201.48 -27.17 202.21 -27.09 202.96 C-26.84 206.27 -26.74 208.52 -28.33 211.48 C-30 213 -30 213 -32.44 213.5 C-35.82 212.84 -36.98 211.77 -39 209 C-39 207.33 -39 205.67 -39 204 C-39.66 203.55 -40.32 203.09 -41 202.62 C-41.66 202.09 -42.32 201.55 -43 201 C-43.25 197.31 -43.25 197.31 -43 194 C-44.32 193.34 -45.64 192.68 -47 192 C-46.67 193.98 -46.34 195.96 -46 198 C-48.44 197.66 -49.75 197.23 -51.57 195.54 C-53.71 191.75 -53.71 187.97 -54 183.69 C-54.43 177.46 -55.21 172.62 -58 167 C-59.51 163.91 -60.11 162.61 -59.5 159.19 C-58.96 155.77 -59.57 153.52 -60.52 150.23 C-61.39 146.2 -61.15 142.11 -61 138 C-64.47 137.25 -64.47 137.25 -68 137 C-67.97 134.1 -67.9 131.21 -67.81 128.31 C-67.81 127.5 -67.8 126.68 -67.79 125.84 C-67.64 121.46 -67.42 119.53 -64.64 115.98 C-62 114 -62 114 -59 113 C-59.88 118.75 -59.88 118.75 -61 121 C-59.95 121.08 -58.9 121.17 -57.81 121.25 C-53.64 122.07 -51.94 122.98 -49 126 C-47.69 128.75 -47.69 128.75 -47 131 C-43.98 130.41 -40.99 129.76 -38 129 C-36.98 122.98 -36.78 119.09 -39.28 113.39 C-41.83 104.92 -40.59 96.09 -36.95 88.23 C-35.37 84.52 -35.24 80.98 -35 77 C-34.85 75.52 -34.7 74.05 -34.55 72.57 C-34.41 70.95 -34.27 69.32 -34.12 67.69 C-34.04 66.9 -33.95 66.11 -33.86 65.29 C-33.7 63.09 -33.61 61.18 -34 59 C-36.38 56.62 -36.38 56.62 -39 55 C-39 52.28 -38.7 50.58 -38 48 C-37.8 47.07 -37.6 46.13 -37.39 45.17 C-35.55 37.35 -35.55 37.35 -32.89 35.68 C-32.27 35.45 -31.64 35.23 -31 35 C-31.06 34.03 -31.12 33.06 -31.19 32.06 C-31.2 27.43 -29.87 23.21 -28 19 C-27.34 18.34 -26.68 17.68 -26 17 C-25.54 14.11 -25.54 14.11 -25.38 10.88 C-25.3 9.78 -25.23 8.68 -25.15 7.55 C-25.1 6.71 -25.05 5.87 -25 5 C-24.22 4.87 -23.43 4.74 -22.62 4.6 C-19.93 4.19 -19.93 4.19 -18 2.38 C-16 1 -16 1 -13.88 1.25 C-12.93 1.5 -11.98 1.75 -11 2 C-9.23 2.21 -7.46 2.39 -5.69 2.56 C-4.8 2.65 -3.92 2.73 -3.01 2.82 C-2.35 2.88 -1.68 2.94 -1 3 C-0.67 2.01 -0.34 1.02 0 0 Z M12 38 C13 40 13 40 13 40 Z M149 307 C150 309 150 309 150 309 Z " fill="#757779" transform="translate(217,0)"/>
<path d="M0 0 C3.31 1.1 4.06 2.11 5.88 5.19 C8.82 9.69 13.38 11.44 18.19 13.43 C20.02 14.23 20.02 14.23 23 16 C23.88 18.57 23.88 18.57 24 21 C24.48 23.3 24.48 23.3 26 25 C29.86 25.91 32.22 26.26 36 25 C36 25.7 36.01 26.4 36.01 27.12 C36.28 33.77 37.42 37.18 41.68 42.23 C43 44 43 44 43.69 47.12 C42.77 50.96 40.92 53.44 38 56 C34.69 57.88 34.69 57.88 32 59 C32.99 60.98 32.99 60.98 34 63 C35.09 62.92 36.19 62.83 37.31 62.75 C41 63 41 63 43 64.62 C44.32 67.76 43.61 69.7 43 73 C43.69 75.78 43.69 75.78 45 78 C45.66 78.33 46.32 78.66 47 79 C46.93 79.57 46.87 80.15 46.8 80.74 C46.51 83.37 46.29 85.99 46.06 88.62 C45.96 89.53 45.85 90.43 45.74 91.36 C45.25 96.47 45.25 96.47 47.51 100.84 C49.36 102.4 49.36 102.4 51.32 103.64 C53.97 105.79 54.35 108.3 54.87 111.57 C55.06 115.02 54.75 118.31 54.27 121.73 C53.91 124.13 53.91 124.13 54.25 127.06 C53.7 133.54 49.53 138.62 45 143 C43.75 145.63 43.75 145.63 43 148 C42.34 148 41.68 148 41 148 C40.34 147.01 39.68 146.02 39 145 C38.01 145 37.02 145 36 145 C36.1 145.88 36.19 146.77 36.29 147.68 C37.22 157.8 36.61 166.45 33 176 C31 175 31 175 29.44 171.38 C27.63 165.79 27.55 160.17 27.41 154.36 C26.97 150.78 26.27 149.66 24 147 C23.52 145.01 23.04 143.01 22.6 141 C22.03 138.71 22.03 138.71 19.94 136.06 C17.42 132.08 17.21 128.62 17 124 C14.35 126.23 14.35 126.23 12 129 C12.08 131.52 13 133 14.12 135.25 C15.38 139.2 14.81 141.94 14 146 C13.34 146.33 12.68 146.66 12 147 C11.01 144.03 10.02 141.06 9 138 C7.35 138 5.7 138 4 138 C-1.59 147.45 -1.59 147.45 -2 158 C0.17 160.83 0.17 160.83 3 163 C8.2 167.73 11.26 173.72 12.46 180.66 C12.87 190.5 7.87 196.38 1.84 203.66 C-0.27 206.35 -1.64 208.89 -3 212 C-4 213 -4 213 -6.56 213.06 C-7.37 213.04 -8.17 213.02 -9 213 C-9.43 211.91 -9.87 210.81 -10.31 209.69 C-11.29 207.36 -11.88 206.12 -13.75 204.38 C-14.16 203.92 -14.57 203.47 -15 203 C-14.79 200.28 -14.18 198.36 -12.94 195.94 C-11.71 193.76 -11.71 193.76 -12 190 C-12.99 189.67 -13.98 189.34 -15 189 C-18.26 191.09 -19.93 192.87 -21.88 196.25 C-24 199 -24 199 -27.19 199.5 C-36.97 198.22 -36.97 198.22 -40 197 C-40.33 196.01 -40.66 195.02 -41 194 C-42.72 193.11 -42.72 193.11 -44.88 192.56 C-45.69 192.31 -46.5 192.05 -47.34 191.79 C-49.12 191.26 -50.92 190.77 -52.73 190.31 C-61.08 187.87 -65.23 183.13 -70 176 C-70.42 175.4 -70.84 174.79 -71.27 174.17 C-72.43 170.72 -71.94 167.32 -71.62 163.75 C-71.57 163 -71.51 162.26 -71.45 161.49 C-71.31 159.66 -71.16 157.83 -71 156 C-71.64 155.73 -72.28 155.47 -72.94 155.19 C-75 154 -75 154 -75.94 150.94 C-76.01 146.09 -75.5 142.21 -73 138 C-71.16 136.7 -71.16 136.7 -69.06 135.62 C-65.09 133.55 -64.02 131.5 -62.5 127.31 C-61.35 123.72 -61.35 123.72 -61 120 C-61.91 119.84 -62.81 119.67 -63.75 119.5 C-67 118 -67 118 -67.83 116.23 C-68.19 115.19 -68.19 115.19 -68.56 114.12 C-69.93 110.87 -70.69 110.14 -74 108.69 C-76.28 108.04 -78.59 107.43 -80.91 106.89 C-83.95 106.01 -85.72 105.17 -88 103 C-88 102.34 -88 101.68 -88 101 C-89.92 100.72 -89.92 100.72 -91.88 100.44 C-92.59 100.33 -93.31 100.23 -94.05 100.12 C-96.08 99.83 -96.08 99.83 -98 101 C-98.43 103.32 -98.43 103.32 -98.56 106 C-98.9 110.9 -98.9 110.9 -100 112 C-99.91 113.69 -99.75 115.38 -99.56 117.06 C-99.41 118.44 -99.41 118.44 -99.25 119.85 C-99.13 120.91 -99.13 120.91 -99 122 C-102 123 -102 123 -104.56 121.81 C-107.07 119.95 -107.79 118.79 -109 116 C-109.66 115.67 -110.32 115.34 -111 115 C-111.5 116.49 -111.5 116.49 -112 118 C-112.99 117.67 -113.98 117.34 -115 117 C-114.12 112.25 -114.12 112.25 -113 110 C-113.33 109.01 -113.66 108.02 -114 107 C-114.99 107 -115.98 107 -117 107 C-117.99 110.3 -118.98 113.6 -120 117 C-125 116 -125 116 -128 115 C-128.66 116.32 -129.32 117.64 -130 119 C-131.91 115.79 -132.2 113.52 -132.06 109.81 C-132.01 108.21 -131.98 106.6 -132 105 C-133.08 103.71 -133.08 103.71 -135.69 103.69 C-140 104.09 -141.79 105.08 -145 108 C-145.98 110.27 -146.67 112.48 -147.26 114.88 C-148.1 117.28 -149.16 118.28 -151 120 C-151.33 120.85 -151.66 121.69 -152 122.56 C-153 125 -153 125 -156 127 C-156.95 129.87 -156.95 129.87 -157.69 133.19 C-159.37 139.03 -161.34 142.19 -166 146.02 C-168 147 -168 147 -170.14 146.82 C-172 146 -172 146 -173.75 143.44 C-175.18 139.5 -176.01 136.1 -175 132 C-173.63 130.08 -172.1 128.48 -170.46 126.79 C-168.03 123.81 -167.73 120.73 -167 117 C-166.48 116.06 -166.48 116.06 -165.95 115.11 C-164.74 112.42 -164.87 110.43 -165 107.5 C-165.17 103.69 -165.18 101.2 -163 98 C-160.79 95.93 -160.79 95.93 -158.19 93.88 C-157.34 93.19 -156.48 92.51 -155.61 91.8 C-152 89.31 -148.59 88.16 -144.38 87 C-140.91 86.15 -140.91 86.15 -138 84 C-136.74 84.21 -135.48 84.41 -134.19 84.62 C-130.84 85.12 -129.94 84.98 -126.62 83.62 C-123.46 80.46 -123.26 78.53 -122.54 74.26 C-121.61 70.35 -120.04 68.63 -117 66 C-113.5 65.75 -113.5 65.75 -110 66 C-106.06 65.08 -105.15 64.2 -102.69 60.88 C-102.13 59.93 -101.57 58.98 -101 58 C-99.91 58.23 -99.91 58.23 -98.8 58.46 C-96.07 59.03 -96.07 59.03 -93.57 59.25 C-87.57 60.01 -83.92 61.7 -80.14 66.51 C-78.31 70.51 -78.92 74.01 -79.63 78.27 C-79.99 80.91 -79.85 82.5 -79 85 C-74.7 83.48 -74.7 83.48 -71 81 C-69.15 80.93 -67.29 80.92 -65.44 80.94 C-64.43 80.95 -63.41 80.96 -62.37 80.96 C-61.59 80.98 -60.81 80.99 -60 81 C-59.86 79.8 -59.71 78.61 -59.56 77.38 C-59.47 76.64 -59.37 75.91 -59.27 75.16 C-59.05 73.4 -58.89 71.64 -58.75 69.88 C-57.68 65.77 -56.04 63.97 -53 61 C-50.62 59.75 -50.62 59.75 -48 60 C-46.14 61.41 -44.48 62.96 -42.78 64.56 C-40.33 66.54 -38.1 66.85 -35 67 C-34.92 63.68 -35.04 60.77 -35.69 57.5 C-36.06 53.31 -34.94 51.65 -33 48 C-32.75 44.75 -32.75 44.75 -33 42 C-29.81 41.19 -29.81 41.19 -26 41 C-23.12 43.38 -23.12 43.38 -21 46 C-20.67 46.33 -20.34 46.66 -20 47 C-18.35 47 -16.7 47 -15 47 C-15 43.37 -15 39.74 -15 36 C-11 37 -11 37 -8 39 C-5.49 39.46 -5.49 39.46 -2.81 39.62 C-1.91 39.7 -1.01 39.77 -0.08 39.85 C0.61 39.9 1.29 39.95 2 40 C4.32 34.84 3.83 31.19 2 26 C1.05 23.64 0.03 21.33 -1 19 C-2.07 15.63 -2.17 12.46 -2.19 8.94 C-2.2 7.89 -2.22 6.85 -2.23 5.78 C-2 3 -2 3 0 0 Z M-9 45 C-8 47 -8 47 -8 47 Z M-7 58 C-6 62 -6 62 -6 62 Z M-7 65 C-6 69 -6 69 -6 69 Z M-6 85 C-5 87 -5 87 -5 87 Z M22 91 C22 91.33 22 91.66 22 92 C23.65 92 25.3 92 27 92 C27 91.67 27 91.34 27 91 C25.35 91 23.7 91 22 91 Z M-4 92 C-3 95 -3 95 -3 95 Z M-5 99 C-4 101 -4 101 -4 101 Z M-6 105 C-5 108 -5 108 -5 108 Z M-44 156 C-44 156.33 -44 156.66 -44 157 C-42.35 157 -40.7 157 -39 157 C-39 156.67 -39 156.34 -39 156 C-40.65 156 -42.3 156 -44 156 Z " fill="#757779" transform="translate(421,443)"/>
<path d="M0 0 C2.76 2.98 4.17 6.04 5 10 C3.78 16.17 1.49 21.77 -2 27 C-2.66 27 -3.32 27 -4 27 C-5.38 30.06 -6.18 32.91 -6.75 36.19 C-7.52 39.94 -8.82 42.51 -10.94 45.69 C-15.33 52.6 -17.53 61.15 -17 69.38 C-15.93 73.26 -14.31 75.76 -12.1 79.06 C-10.29 82.25 -10.35 84.45 -11 88 C-12.78 91.28 -14.61 94.3 -18 96 C-25.25 96.58 -25.25 96.58 -27.88 94.56 C-28.95 92.12 -29.43 90.04 -29.94 87.44 C-30.63 83.99 -30.63 83.99 -32.56 81.12 C-34.86 79.95 -34.86 79.95 -36.95 79.62 C-43.47 78.17 -46.68 74.57 -50.3 69.19 C-53.07 64.63 -53.89 61.27 -52.7 56.1 C-52.47 55.41 -52.24 54.71 -52 54 C-51.69 52.99 -51.38 51.98 -51.06 50.94 C-48.13 48.18 -45.5 48.44 -41.58 48.23 C-37.83 47.89 -35.29 46.82 -32 45 C-30.83 42.01 -30.83 42.01 -31 38.75 C-31 35 -31 35 -30.44 31.12 C-30.29 30.09 -30.15 29.06 -30 28 C-30.33 27.67 -30.66 27.34 -31 27 C-31.31 24.12 -31.31 24.12 -31 21 C-30.36 20.57 -29.72 20.14 -29.05 19.7 C-26.16 17.31 -26.3 15.29 -25.81 11.62 C-24.58 5.59 -24.58 5.59 -22.06 3.04 C-17.34 0.28 -13.48 -0.43 -8 0 C-7.28 -0.19 -6.56 -0.37 -5.81 -0.56 C-3.45 -1.13 -2.27 -0.86 0 0 Z " fill="#757779" transform="translate(325,385)"/>
<path d="M0 0 C5.64 0.63 5.64 0.63 7.41 2.46 C9.42 4.41 10.97 4.65 13.69 5.25 C20.44 7.11 24.61 11.26 29.12 16.44 C30.98 18.27 30.98 18.27 34 18.38 C36.94 18.18 36.94 18.18 39.12 16.94 C41 16 41 16 43 16.19 C45.33 17.13 47.06 18.41 49 20 C48.34 21.65 47.68 23.3 47 25 C49.79 23.36 52.41 21.7 55 19.75 C58 18 58 18 60.75 18.19 C63 19 63 19 65 20 C65 22 65 22 62.56 24.5 C61.72 25.32 60.87 26.15 60 27 C58.78 29.43 58.68 31.42 58.44 34.12 C58.35 35.04 58.27 35.95 58.18 36.88 C58.09 37.93 58.09 37.93 58 39 C55.92 39.55 54.16 40 52 40 C51.83 40.76 51.67 41.53 51.5 42.31 C49.31 46.24 46.18 46.8 42 48 C41.96 49.26 41.92 50.52 41.88 51.81 C41.61 54.04 41.61 54.04 41 56 C38.19 57.69 38.19 57.69 35 59 C34.4 59.84 33.81 60.68 33.19 61.55 C31 64 31 64 28.05 64.53 C26.96 64.52 25.87 64.51 24.75 64.5 C15.23 64.9 10.44 69.24 3.86 75.74 C2 77 2 77 -0.23 76.7 C-0.82 76.47 -1.4 76.24 -2 76 C-1.86 75.36 -1.71 74.72 -1.56 74.06 C-0.63 69 0.12 63.96 -0.19 58.81 C0 56 0 56 1.94 53.25 C5.42 47.76 5.06 41.79 4.94 35.44 C4.87 30.8 5.64 26.43 7 22 C7.33 21.67 7.66 21.34 8 21 C8.07 19.15 8.08 17.29 8.06 15.44 C8.04 13.64 8.02 11.85 8 10 C4.37 9.34 0.74 8.68 -3 8 C-2 3 -2 3 0 0 Z " fill="#757779" transform="translate(250,337)"/>
<path d="M0 0 C3 1 3 1 4.17 2.59 C5.33 5.96 5.26 9 5.25 12.56 C5.26 13.57 5.26 13.57 5.27 14.6 C5.26 18.28 5.1 19.86 3 23 C3.31 26.35 3.9 29.53 4.62 32.81 C5 35 5 35 4 37 C4.62 37.06 5.24 37.12 5.88 37.19 C8 38 8 38 9.31 40.31 C10.06 43.24 10.27 44.28 9 47 C5.31 51.33 2.3 52.84 -3.12 54.38 C-7.79 55.76 -7.79 55.76 -11.47 58.7 C-12.33 60.74 -12.33 60.74 -13 64 C-14.52 67.3 -15.39 68.71 -18.71 70.29 C-19.73 70.59 -20.76 70.88 -21.81 71.19 C-23.34 71.64 -23.34 71.64 -24.89 72.11 C-25.92 72.4 -26.94 72.7 -28 73 C-30 73.66 -32 74.32 -34 75 C-34.33 77.97 -34.66 80.94 -35 84 C-36.98 83.5 -36.98 83.5 -39 83 C-38.87 83.58 -38.74 84.16 -38.61 84.76 C-37.79 89.38 -37.51 91.25 -40.19 95.31 C-41.79 96.84 -43.39 98.36 -45 99.88 C-47.38 102.4 -49.01 105.12 -50.75 108.1 C-52.98 111.49 -54.05 112.78 -58.14 113.73 C-59.31 113.88 -60.48 114.03 -61.69 114.19 C-62.87 114.35 -64.05 114.5 -65.26 114.67 C-66.62 114.83 -66.62 114.83 -68 115 C-68.27 115.9 -68.54 116.8 -68.82 117.72 C-71.78 125.93 -77.78 131.28 -85.13 135.69 C-89.38 137.63 -93.37 138.07 -98 138 C-98.33 140.31 -98.66 142.62 -99 145 C-99.68 145.25 -100.35 145.51 -101.05 145.77 C-101.94 146.11 -102.83 146.46 -103.75 146.81 C-104.63 147.15 -105.51 147.49 -106.42 147.83 C-108.93 148.97 -110.82 150.34 -113 152 C-113.66 152 -114.32 152 -115 152 C-112.87 144.63 -110.14 137.06 -103.73 132.47 C-101.32 130.42 -99.56 128 -97.62 125.5 C-94.37 121.4 -91.51 118.53 -86.82 116.2 C-84.8 115.02 -84.8 115.02 -83.2 112.57 C-80.5 109.41 -77.98 108.34 -74.19 106.69 C-67.02 103.36 -62.47 99.4 -58.6 92.5 C-56.86 89.79 -55.04 88.11 -52.56 86.06 C-47.85 81.99 -44.78 78.06 -42.5 72.25 C-41 69 -41 69 -38.94 67.56 C-37 67 -37 67 -35 67 C-34.98 66.07 -34.96 65.14 -34.94 64.19 C-34.47 62.61 -34.47 62.61 -34 61 C-32.89 60.53 -31.77 60.05 -30.62 59.56 C-25.94 57.54 -25.83 55.58 -24 51 C-21.56 49.62 -19.7 49.08 -16.94 48.75 C-12.71 47.12 -11 42.18 -9.25 38.25 C-7.88 35.27 -7.88 35.27 -8 33 C-9.32 32.34 -10.64 31.68 -12 31 C-12 29.35 -12 27.7 -12 26 C-11.01 26 -10.02 26 -9 26 C-7.68 28.31 -6.36 30.62 -5 33 C-4.34 33 -3.68 33 -3 33 C-3.52 27.72 -5.25 24.43 -8 20 C-7.34 19.32 -6.68 18.64 -6 17.94 C-3.69 15.14 -3.69 15.14 -4 11.69 C-4 6.95 -2.34 4.02 0 0 Z " fill="#757779" transform="translate(132,364)"/>
<path d="M0 0 C4.51 0.21 8.82 0.25 13.25 -0.69 C16.94 -1.11 18.71 0.32 22 2 C24.35 2.4 26.67 2.62 29.05 2.79 C31 3 31 3 33 4 C33.21 4.76 33.41 5.53 33.62 6.31 C35.67 10.3 38.98 11.33 43 13 C43 13.99 43 14.98 43 16 C45.47 16.99 45.47 16.99 48 18 C47.24 23.56 47.24 23.56 45.94 25.91 C44.8 28.44 44.93 29.9 45.31 32.62 C45.46 33.79 45.46 33.79 45.61 34.98 C45.92 37.06 45.92 37.06 47 39 C47.31 42.38 47.31 42.38 47 46 C45.67 47.33 44.33 48.67 43 50 C42.92 51.28 42.84 52.56 42.75 53.88 C42.53 56.62 42.21 57.75 40.41 59.89 C37.04 62.66 34.77 63.92 30.38 64.38 C26.2 62.68 24.78 60.66 22.35 56.97 C21.03 54.85 21.03 54.85 18.75 53.12 C16.29 50.14 16.23 47.14 15.64 43.38 C15.15 40.7 15.15 40.7 12.38 38.56 C10 36 10 36 9.85 33.5 C9.9 32.55 9.95 31.6 10 30.62 C10.22 25.73 9.66 23.18 6.51 19.43 C4.18 17.22 1.76 15.63 -1 14 C-2.97 12.03 -2.66 8.65 -3 6 C-5.31 6.33 -7.62 6.66 -10 7 C-10.33 5.35 -10.66 3.7 -11 2 C-6.83 -1.07 -4.97 -1.03 0 0 Z " fill="#757779" transform="translate(186,259)"/>
<path d="M0 0 C0.66 0.33 1.32 0.66 2 1 C1.01 3.97 0.02 6.94 -1 10 C-0.01 10.33 0.98 10.66 2 11 C2.05 12.42 2.09 13.83 2.12 15.25 C2.15 16.04 2.17 16.83 2.2 17.64 C2 20 2 20 0.98 21.81 C-0.48 25.07 -0.03 28.26 0.12 31.75 C0.24 37.96 0.28 43.16 -4 48 C-6.2 49.91 -8.46 51.64 -10.82 53.36 C-16.08 57.31 -18.55 61.65 -20.32 67.95 C-21 70 -21 70 -23 73 C-23.45 74.74 -23.87 76.49 -24.25 78.25 C-25.62 83.5 -27.61 87.65 -32 91 C-32.99 91 -33.98 91 -35 91 C-34.73 87.65 -34.38 84.33 -34 81 C-33.92 80.27 -33.84 79.54 -33.75 78.79 C-31.72 61.21 -31.72 61.21 -26.48 55.62 C-24.83 53.81 -23.95 52.09 -22.94 49.88 C-21.64 47.09 -20.64 45.6 -18.5 43.25 C-15.43 39.78 -14.5 35.79 -13.17 31.42 C-11.85 27.57 -10.17 24.02 -8.38 20.38 C-5.89 15.3 -4.14 10.59 -3.48 4.95 C-2.89 2.55 -1.86 1.58 0 0 Z " fill="#757779" transform="translate(352,371)"/>
<path d="M0 0 C1.02 0.8 1.02 0.8 2.06 1.62 C3.89 3.25 3.89 3.25 6.06 2.75 C7.02 2.38 7.02 2.38 8 2 C8.99 1.67 9.98 1.34 11 1 C11 5 11 5 10.44 8.06 C9.77 11.05 9.77 11.05 11 14 C11.04 16.33 11.04 18.67 11 21 C9.95 21.41 8.9 21.82 7.81 22.25 C5.25 23.32 3.88 24.11 1.81 26.06 C-3.35 29.62 -10.03 30.3 -16.2 29.67 C-19.6 28.86 -21.44 27.33 -24 25 C-23.67 23.68 -23.34 22.36 -23 21 C-23.99 20.67 -24.98 20.34 -26 20 C-25.72 16.62 -25.29 15.28 -22.81 12.88 C-20 11 -20 11 -16.94 9.62 C-13.36 7.64 -12.2 5.4 -10 2 C-6.41 -0.86 -4.36 -1.57 0 0 Z " fill="#757779" transform="translate(367,426)"/>
<path d="M0 0 C3.65 1.25 4.78 1.67 7 5 C7.73 4.74 8.46 4.48 9.21 4.21 C12 4 12 4 14.32 5.95 C15.1 6.85 15.88 7.76 16.69 8.69 C20.09 12.37 22.42 14.5 27.25 15.88 C31.96 17.41 33.34 19.56 35.56 23.94 C38.33 30.14 39.13 35.23 39 42 C35.26 42 34.81 41.16 32.19 38.62 C29.53 36.18 28.12 35.04 24.62 33.88 C23.76 33.59 22.89 33.3 22 33 C20.94 30.62 20.94 30.62 20 28 C18.37 26.62 16.7 25.29 15 24 C13.19 21.75 13.19 21.75 12 20 C8.75 20.35 8.03 20.97 5.88 23.56 C4.95 24.77 4.95 24.77 4 26 C3.34 26 2.68 26 2 26 C1.77 26.78 1.55 27.57 1.31 28.38 C0 31 0 31 -2.62 32.31 C-3.41 32.54 -4.19 32.77 -5 33 C-3.92 27.59 -3.26 24.71 1 21 C1.33 20.01 1.66 19.02 2 18 C1.01 17.67 0.02 17.34 -1 17 C-0.51 13.88 -0 11 1 8 C0.67 7.36 0.34 6.72 0 6.06 C-1 4 -1 4 -0.62 1.75 C-0.42 1.17 -0.21 0.6 0 0 Z " fill="#757779" transform="translate(316,304)"/>
<path d="M0 0 C1.81 0.19 1.81 0.19 4 1 C5.06 2.63 6.05 4.3 7 6 C7.72 6.58 8.44 7.16 9.19 7.75 C11.66 10.82 11.44 13.14 11.43 16.98 C11 19 11 19 8 21 C7.67 21.99 7.34 22.98 7 24 C5.35 24 3.7 24 2 24 C2 24.66 2 25.32 2 26 C1.01 26.33 0.02 26.66 -1 27 C-3.76 24.76 -4.9 23.64 -5.44 20.06 C-5 17 -5 17 -3.56 14.75 C-1.56 11.23 -1.46 8.2 -1.21 4.21 C-1 2 -1 2 0 0 Z " fill="#757779" transform="translate(362,230)"/>
<path d="M0 0 C4.02 0.45 6.58 1.95 10 4 C12.69 4.71 12.69 4.71 15 5 C15 6.32 15 7.64 15 9 C13.35 9.66 11.7 10.32 10 11 C10 12.32 10 13.64 10 15 C1.6 17.86 1.6 17.86 -3 16 C-6.13 12.38 -9 8.89 -9 4 C-8.43 3.8 -7.87 3.59 -7.29 3.38 C-6.55 3.11 -5.82 2.84 -5.06 2.56 C-4.33 2.3 -3.6 2.03 -2.85 1.75 C-1.02 1.15 -1.02 1.15 0 0 Z " fill="#757779" transform="translate(249,598)"/>
<path d="M0 0 C5.54 0.4 7.83 2.51 12 6 C14.33 6.93 16.53 7.46 19 8 C19.33 9.65 19.66 11.3 20 13 C19.01 13.5 19.01 13.5 18 14 C18 15.32 18 16.64 18 18 C15.13 17.43 14.14 17.14 12 15 C10.89 14.88 9.77 14.75 8.62 14.62 C5 14 5 14 2.62 12.56 C0.14 8.64 0.17 4.56 0 0 Z " fill="#757779" transform="translate(153,320)"/>
<path d="M0 0 C1.42 0.37 1.42 0.37 2.88 0.75 C3.21 1.41 3.53 2.07 3.88 2.75 C4.5 2.72 5.13 2.68 5.77 2.64 C7 2.6 7 2.6 8.25 2.56 C9.06 2.53 9.87 2.49 10.71 2.46 C11.43 2.55 12.14 2.65 12.88 2.75 C13.87 4.24 13.87 4.24 14.88 5.75 C12.62 8.25 12.62 8.25 9.88 10.75 C8.56 10.75 7.24 10.75 5.88 10.75 C5.55 10.09 5.22 9.43 4.88 8.75 C2.49 9.33 0.21 9.97 -2.12 10.75 C-4.62 9.75 -4.62 9.75 -7.12 8.75 C-8.12 9.08 -9.1 9.41 -10.12 9.75 C-10.46 8.76 -10.78 7.77 -11.12 6.75 C-4.22 -0.34 -4.22 -0.34 0 0 Z " fill="#757779" transform="translate(205.125,630.25)"/>
<path d="M0 0 C0.99 0 1.98 0 3 0 C3.06 1 3.12 2 3.18 3.04 C3.27 4.38 3.35 5.72 3.44 7.06 C3.52 8.37 3.6 9.68 3.68 11.04 C3.95 14.99 3.95 14.99 4.62 18.81 C5 22 5 22 3.69 24.94 C2.85 25.96 2.85 25.96 2 27 C1.34 27 0.68 27 0 27 C0.02 26.28 0.04 25.56 0.06 24.81 C0 22.08 -0.39 19.66 -1 17 C-2.32 16.67 -3.64 16.34 -5 16 C-3.16 3.67 -3.16 3.67 0 0 Z " fill="#757779" transform="translate(429,413)"/>
<path d="M0 0 C2.06 1.19 2.06 1.19 3 3 C2.74 6.99 1.61 10.36 0 14 C-3 14 -3 14 -4.5 12.69 C-5 12.13 -5.49 11.57 -6 11 C-6.54 10.48 -7.07 9.97 -7.62 9.44 C-10.45 6.48 -10.09 3.93 -10 0 C-6.75 -1.63 -3.43 -0.78 0 0 Z " fill="#757779" transform="translate(258,258)"/>
<path d="M0 0 C2.44 0.88 2.44 0.88 3.75 2.94 C4.09 3.9 4.09 3.9 4.44 4.88 C3.45 6.36 3.45 6.36 2.44 7.88 C2.44 8.87 2.44 9.85 2.44 10.88 C3.1 11.21 3.76 11.53 4.44 11.88 C4.11 14.51 3.78 17.16 3.44 19.88 C1.79 20.53 0.14 21.19 -1.56 21.88 C-2.56 18.88 -2.56 18.88 -1.88 16.06 C-1.46 11.79 -3.15 10.31 -5.56 6.88 C-6 4.12 -6 4.12 -5.56 1.88 C-2.56 -0.12 -2.56 -0.12 0 0 Z " fill="#757779" transform="translate(254.5625,180.125)"/>
<path d="M0 0 C-0.61 7.63 -2.8 14.7 -5 22 C-6.32 22 -7.64 22 -9 22 C-11.08 17.6 -11.08 17.6 -10.75 15.06 C-10.5 14.38 -10.25 13.7 -10 13 C-8.53 8.69 -8.53 8.69 -7.56 4.25 C-6.49 -0.04 -4.04 0 0 0 Z " fill="#757779" transform="translate(262,302)"/>
<path d="M0 0 C1.32 0 2.64 0 4 0 C5.49 1.5 5.49 1.5 6.88 3.56 C8.86 6.41 10.88 9.09 13.19 11.69 C19 18.37 19 18.37 19 22 C15.71 20.6 14.01 19.04 11.81 16.25 C8.58 12.38 5.14 9.88 0.82 7.32 C-1 6 -1 6 -2 3 C-1.34 2.01 -0.68 1.02 0 0 Z " fill="#757779" transform="translate(303,276)"/>
<path d="M0 0 C4.38 0.72 7.92 2.83 11 6 C11.75 10.16 11.36 11.47 9 15 C8.01 15 7.02 15 6 15 C6 14.01 6 13.02 6 12 C5.4 11.61 4.8 11.22 4.19 10.81 C1 8.17 0.21 4.88 -1 1 C-0.67 0.67 -0.34 0.34 0 0 Z " fill="#757779" transform="translate(150,334)"/>
<path d="M0 0 C2.31 0.38 2.31 0.38 3.31 1.38 C3.35 3.71 3.35 6.04 3.31 8.38 C0.34 9.7 -2.63 11.01 -5.69 12.38 C-6.69 11.38 -6.69 11.38 -7 8.62 C-6.55 3.93 -4.93 0.69 0 0 Z " fill="#757779" transform="translate(18.6875,568.625)"/>
<path d="M0 0 C-0.4 5.8 -1.09 9.42 -5 14 C-7.14 14.66 -7.14 14.66 -9 15 C-8.81 4.92 -8.81 4.92 -5.62 1.31 C-3 0 -3 0 0 0 Z " fill="#757779" transform="translate(288,400)"/>
<path d="M0 0 C1.32 0.66 2.64 1.32 4 2 C3.94 3.75 3.94 3.75 3 6 C-1.84 9.36 -6.27 10.79 -12 12 C-10.48 8.12 -8.14 6.26 -4.88 3.75 C-3.96 3.04 -3.05 2.34 -2.12 1.61 C-1.42 1.08 -0.72 0.55 0 0 Z " fill="#757779" transform="translate(152,672)"/>
<path d="M0 0 C2 2 2 2 2.12 4.62 C2.08 5.41 2.04 6.19 2 7 C0.02 7.99 0.02 7.99 -2 9 C-2.87 8.1 -2.87 8.1 -3.75 7.19 C-5.91 4.98 -5.91 4.98 -8.25 3.38 C-8.83 2.92 -9.4 2.47 -10 2 C-10 1.34 -10 0.68 -10 0 C-6.32 -0.95 -3.66 -1.09 0 0 Z " fill="#757779" transform="translate(286,310)"/>
<path d="M0 0 C2.75 0.12 2.75 0.12 6 1 C10 5.95 10 5.95 10 9 C7.25 9.31 7.25 9.31 4 9 C1.62 6.75 1.62 6.75 0 4 C0 2.68 0 1.36 0 0 Z " fill="#757779" transform="translate(370,349)"/>
<path d="M0 0 C2.31 0.19 2.31 0.19 5 1 C8.05 4.7 8.54 8.31 9 13 C7.87 12.07 6.75 11.13 5.62 10.19 C5 9.67 4.37 9.14 3.73 8.61 C2 7 2 7 0 4 C0 2.68 0 1.36 0 0 Z " fill="#757779" transform="translate(333,301)"/>
<path d="M0 0 C0.99 0.33 1.98 0.66 3 1 C3.33 3.31 3.66 5.62 4 8 C1.75 9.19 1.75 9.19 -1 10 C-3.31 8.81 -3.31 8.81 -5 7 C-5 6.01 -5 5.02 -5 4 C-4.36 3.71 -3.72 3.42 -3.06 3.12 C-0.85 2.17 -0.85 2.17 0 0 Z " fill="#757779" transform="translate(330,469)"/>
<path d="M0 0 C0.66 0 1.32 0 2 0 C2.22 1.6 2.43 3.21 2.62 4.81 C2.74 5.71 2.86 6.6 2.98 7.52 C3 10 3 10 1 13 C-0.32 12.67 -1.64 12.34 -3 12 C-3.88 9.53 -4.13 8.36 -3.22 5.86 C-2.84 5.16 -2.46 4.47 -2.06 3.75 C-1.68 3.04 -1.3 2.34 -0.91 1.61 C-0.61 1.08 -0.31 0.55 0 0 Z " fill="#757779" transform="translate(451,432)"/>
<path d="M0 0 C4.75 0.88 7.8 3.48 11 7 C11.94 9.88 11.94 9.88 12 12 C8.6 10.53 6.35 8.62 3.75 6 C3.04 5.3 2.34 4.6 1.61 3.88 C0 2 0 2 0 0 Z " fill="#757779" transform="translate(251,220)"/>
<path d="M0 0 C5.53 1.19 8.18 2.6 12 7 C11.67 7.66 11.34 8.32 11 9 C6.03 7.73 3.33 5.91 0 2 C0 1.34 0 0.68 0 0 Z " fill="#757779" transform="translate(163,241)"/>
<path d="M0 0 C0.99 0 1.98 0 3 0 C3.03 1.46 3.05 2.92 3.06 4.38 C3.07 5.19 3.09 6 3.1 6.84 C3 9 3 9 2 11 C0.68 10.34 -0.64 9.68 -2 9 C-2.25 3.38 -2.25 3.38 0 0 Z " fill="#757779" transform="translate(8,532)"/>
<path d="M0 0 C2.87 0.57 3.86 0.86 6 3 C6.12 6.12 6.12 6.12 6 9 C3.51 7.8 1.32 6.55 -1 5 C-0.67 3.35 -0.34 1.7 0 0 Z " fill="#757779" transform="translate(382,471)"/>
<path d="M0 0 C2.62 0.38 2.62 0.38 5 1 C5 1.99 5 2.98 5 4 C2.19 6.25 2.19 6.25 -1 8 C-1.99 7.67 -2.98 7.34 -4 7 C-2.93 4.08 -2.22 2.22 0 0 Z " fill="#757779" transform="translate(149,404)"/>
<path d="M0 0 C0.66 0.33 1.32 0.66 2 1 C2.12 3.38 2.12 3.38 2 6 C1.34 6.66 0.68 7.32 0 8 C-2.12 7.62 -2.12 7.62 -4 7 C-3.69 4.62 -3.69 4.62 -3 2 C-2.01 1.34 -1.02 0.68 0 0 Z " fill="#757779" transform="translate(162,667)"/>
<path d="M0 0 C0.66 0.33 1.32 0.66 2 1 C1.43 3.87 1.14 4.86 -1 7 C-1.99 7 -2.98 7 -4 7 C-4.33 5.35 -4.66 3.7 -5 2 C-2.62 0.94 -2.62 0.94 0 0 Z " fill="#757779" transform="translate(293,564)"/>
<path d="M0 0 C0 0.99 0 1.98 0 3 C-2.89 5.11 -4.38 6 -8 6 C-7.81 4.12 -7.81 4.12 -7 2 C-4.56 0.75 -2.75 0 0 0 Z " fill="#757779" transform="translate(8,570)"/>
<path d="M0 0 C1.49 0.99 1.49 0.99 3 2 C2.34 3.98 1.68 5.96 1 8 C0.34 7.67 -0.32 7.34 -1 7 C-1.04 5 -1.04 3 -1 1 C-0.67 0.67 -0.34 0.34 0 0 Z " fill="#757779" transform="translate(445,447)"/>
<path d="M0 0 C-0.33 0.99 -0.66 1.98 -1 3 C-2.65 3 -4.3 3 -6 3 C-6 2.01 -6 1.02 -6 0 C-3 -1 -3 -1 0 0 Z " fill="#757779" transform="translate(152,360)"/>
<path d="M0 0 C0.99 0.33 1.98 0.66 3 1 C3.33 2.65 3.66 4.3 4 6 C2.68 5.34 1.36 4.68 0 4 C0 2.68 0 1.36 0 0 Z " fill="#757779" transform="translate(431,393)"/>
<path d="M0 0 C0.66 0 1.32 0 2 0 C1.34 2.31 0.68 4.62 0 7 C-0.66 7 -1.32 7 -2 7 C-1.12 1.12 -1.12 1.12 0 0 Z " fill="#757779" transform="translate(181,617)"/>
<path d="M0 0 C0.66 0 1.32 0 2 0 C2.66 1.65 3.32 3.3 4 5 C2.68 5.33 1.36 5.66 0 6 C0 4.02 0 2.04 0 0 Z " fill="#757779" transform="translate(338,370)"/>
<path d="M0 0 C2.47 0.99 2.47 0.99 5 2 C5 2.99 5 3.98 5 5 C2.53 4.01 2.53 4.01 0 3 C0 2.01 0 1.02 0 0 Z " fill="#757779" transform="translate(206,322)"/>
<path d="M0 0 C1.65 0.33 3.3 0.66 5 1 C4.67 1.66 4.34 2.32 4 3 C2.35 3 0.7 3 -1 3 C-0.67 2.01 -0.34 1.02 0 0 Z " fill="#757779" transform="translate(412,664)"/>
<path d="M0 0 C0.99 0 1.98 0 3 0 C2.67 1.32 2.34 2.64 2 4 C1.01 3.67 0.02 3.34 -1 3 C-0.67 2.01 -0.34 1.02 0 0 Z " fill="#757779" transform="translate(191,656)"/>
<path d="M0 0 C0.99 0.33 1.98 0.66 3 1 C2.01 2.49 2.01 2.49 1 4 C0.01 4 -0.98 4 -2 4 C-1.34 2.68 -0.68 1.36 0 0 Z " fill="#757779" transform="translate(366,401)"/>
<path d="M0 0 C0.99 0.33 1.98 0.66 3 1 C2.01 2.49 2.01 2.49 1 4 C0.01 4 -0.98 4 -2 4 C-1.34 2.68 -0.68 1.36 0 0 Z " fill="#757779" transform="translate(205,389)"/>
<path d="M0 0 C0.66 0 1.32 0 2 0 C2.33 1.65 2.66 3.3 3 5 C2.01 4.67 1.02 4.34 0 4 C-0.33 3.01 -0.66 2.02 -1 1 C-0.67 0.67 -0.34 0.34 0 0 Z " fill="#757779" transform="translate(268,304)"/>
<path d="M0 0 C1.32 0.66 2.64 1.32 4 2 C4 2.99 4 3.98 4 5 C2.68 4.34 1.36 3.68 0 3 C0 2.01 0 1.02 0 0 Z " fill="#757779" transform="translate(264,191)"/>
<path d="M0 0 C0.66 0 1.32 0 2 0 C2 1.98 2 3.96 2 6 C1.34 6 0.68 6 0 6 C0 4.02 0 2.04 0 0 Z " fill="#757779" transform="translate(125,694)"/>
<path d="M0 0 C2.47 0.5 2.47 0.5 5 1 C5 1.66 5 2.32 5 3 C3.35 2.67 1.7 2.34 0 2 C0 1.34 0 0.68 0 0 Z " fill="#757779" transform="translate(237,631)"/>
<path d="M0 0 C1.32 0 2.64 0 4 0 C3.67 1.32 3.34 2.64 3 4 C2.01 3.34 1.02 2.68 0 2 C0 1.34 0 0.68 0 0 Z " fill="#757779" transform="translate(78,584)"/>
<path d="M0 0 C0.66 0 1.32 0 2 0 C1.67 1.65 1.34 3.3 1 5 C0.34 4.67 -0.32 4.34 -1 4 C-0.67 2.68 -0.34 1.36 0 0 Z " fill="#757779" transform="translate(350,566)"/>
<path d="M0 0 C1.32 0.33 2.64 0.66 4 1 C3.67 1.99 3.34 2.98 3 4 C2.01 3.67 1.02 3.34 0 3 C0 2.01 0 1.02 0 0 Z " fill="#757779" transform="translate(22,520)"/>
<path d="M0 0 C0.99 0.33 1.98 0.66 3 1 C3 1.66 3 2.32 3 3 C1.68 3.33 0.36 3.66 -1 4 C-0.67 2.68 -0.34 1.36 0 0 Z " fill="#757779" transform="translate(372,399)"/>
<path d="M0 0 C0.99 0.33 1.98 0.66 3 1 C3.33 1.99 3.66 2.98 4 4 C3.01 4 2.02 4 1 4 C0.67 2.68 0.34 1.36 0 0 Z " fill="#757779" transform="translate(387,349)"/>
<path d="M0 0 C0.99 0 1.98 0 3 0 C3 1.32 3 2.64 3 4 C2.01 4 1.02 4 0 4 C0 2.68 0 1.36 0 0 Z " fill="#757779" transform="translate(239,285)"/>
<path d="M0 0 C1.32 0 2.64 0 4 0 C4 0.66 4 1.32 4 2 C2.68 2.33 1.36 2.66 0 3 C0 2.01 0 1.02 0 0 Z " fill="#757779" transform="translate(189,648)"/>
<path d="M0 0 C0.99 0.33 1.98 0.66 3 1 C3 1.66 3 2.32 3 3 C1.35 3 -0.3 3 -2 3 C-2 2.34 -2 1.68 -2 1 C-1.34 0.67 -0.68 0.34 0 0 Z " fill="#757779" transform="translate(339,453)"/>
<path d="M0 0 C1.32 0 2.64 0 4 0 C4 0.66 4 1.32 4 2 C2.68 2.33 1.36 2.66 0 3 C0 2.01 0 1.02 0 0 Z " fill="#757779" transform="translate(273,197)"/>
<path d="M0 0 C0.66 0 1.32 0 2 0 C1.34 1.32 0.68 2.64 0 4 C-0.66 4 -1.32 4 -2 4 C-1.34 2.68 -0.68 1.36 0 0 Z " fill="#757779" transform="translate(214,453)"/>
<path d="M0 0 C0.99 0.33 1.98 0.66 3 1 C3 1.66 3 2.32 3 3 C1.68 3 0.36 3 -1 3 C-0.67 2.01 -0.34 1.02 0 0 Z " fill="#757779" transform="translate(366,342)"/>
<path d="M0 0 C0.66 0 1.32 0 2 0 C2 1.32 2 2.64 2 4 C1.01 3.67 0.02 3.34 -1 3 C-0.67 2.01 -0.34 1.02 0 0 Z " fill="#757779" transform="translate(421,659)"/>
<path d="M0 0 C1.32 0 2.64 0 4 0 C4 0.66 4 1.32 4 2 C3.01 2.33 2.02 2.66 1 3 C0.67 2.01 0.34 1.02 0 0 Z " fill="#757779" transform="translate(205,643)"/>
<path d="M0 0 C0.99 0.33 1.98 0.66 3 1 C2.67 1.66 2.34 2.32 2 3 C1.01 3 0.02 3 -1 3 C-0.67 2.01 -0.34 1.02 0 0 Z " fill="#757779" transform="translate(150,642)"/>
<path d="M0 0 C0.99 0.33 1.98 0.66 3 1 C2.67 1.99 2.34 2.98 2 4 C1.34 3.67 0.68 3.34 0 3 C0 2.01 0 1.02 0 0 Z " fill="#757779" transform="translate(229,602)"/>
<path d="M0 0 C0.66 0.33 1.32 0.66 2 1 C2 1.99 2 2.98 2 4 C1.01 3.67 0.02 3.34 -1 3 C-0.67 2.01 -0.34 1.02 0 0 Z " fill="#757779" transform="translate(259,593)"/>
<path d="M0 0 C1.98 0.99 1.98 0.99 4 2 C3.34 2.66 2.68 3.32 2 4 C1.34 2.68 0.68 1.36 0 0 Z " fill="#757779" transform="translate(249,328)"/>
<path d="M0 0 C0.99 0 1.98 0 3 0 C2.67 0.99 2.34 1.98 2 3 C1.34 3 0.68 3 0 3 C0 2.01 0 1.02 0 0 Z " fill="#757779" transform="translate(141,690)"/>
<path d="M0 0 C1.32 0.33 2.64 0.66 4 1 C3.34 1.66 2.68 2.32 2 3 C1.34 2.67 0.68 2.34 0 2 C0 1.34 0 0.68 0 0 Z " fill="#757779" transform="translate(199,649)"/>
<path d="M0 0 C2.47 0.5 2.47 0.5 5 1 C3.68 1.33 2.36 1.66 1 2 C0.67 1.34 0.34 0.68 0 0 Z " fill="#757779" transform="translate(226,339)"/>
<path d="M0 0 C0.99 0 1.98 0 3 0 C2.67 0.99 2.34 1.98 2 3 C1.34 3 0.68 3 0 3 C0 2.01 0 1.02 0 0 Z " fill="#757779" transform="translate(365,335)"/>
<path d="M0 0 C0.99 0.33 1.98 0.66 3 1 C3 1.66 3 2.32 3 3 C2.01 2.67 1.02 2.34 0 2 C0 1.34 0 0.68 0 0 Z " fill="#757779" transform="translate(462,595)"/>
<path d="M0 0 C0.66 0 1.32 0 2 0 C1.67 0.99 1.34 1.98 1 3 C0.34 3 -0.32 3 -1 3 C-0.67 2.01 -0.34 1.02 0 0 Z " fill="#757779" transform="translate(15,521)"/>
<path d="M0 0 C0.66 0 1.32 0 2 0 C1.67 0.99 1.34 1.98 1 3 C0.34 3 -0.32 3 -1 3 C-0.67 2.01 -0.34 1.02 0 0 Z " fill="#757779" transform="translate(203,376)"/>
<path d="M0 0 C0.99 0.33 1.98 0.66 3 1 C3 1.66 3 2.32 3 3 C2.01 2.67 1.02 2.34 0 2 C0 1.34 0 0.68 0 0 Z " fill="#757779" transform="translate(200,367)"/>
<path d="M0 0 C0.66 0.33 1.32 0.66 2 1 C2 1.66 2 2.32 2 3 C1.01 3 0.02 3 -1 3 C-0.67 2.01 -0.34 1.02 0 0 Z " fill="#757779" transform="translate(197,359)"/>
<path d="M0 0 C0.99 0.33 1.98 0.66 3 1 C3 1.66 3 2.32 3 3 C2.01 2.67 1.02 2.34 0 2 C0 1.34 0 0.68 0 0 Z " fill="#757779" transform="translate(256,284)"/>
<path d="M0 0 C0.66 0 1.32 0 2 0 C2 0.99 2 1.98 2 3 C1.34 3 0.68 3 0 3 C0 2.01 0 1.02 0 0 Z " fill="#757779" transform="translate(436,602)"/>
<path d="M0 0 C0.66 0.66 1.32 1.32 2 2 C1.01 2.33 0.02 2.66 -1 3 C-0.67 2.01 -0.34 1.02 0 0 Z " fill="#757779" transform="translate(433,595)"/>
<path d="M0 0 C0.99 0 1.98 0 3 0 C3 0.66 3 1.32 3 2 C2.01 2 1.02 2 0 2 C0 1.34 0 0.68 0 0 Z " fill="#757779" transform="translate(359,329)"/>
<path d="M0 0 C0.99 0.33 1.98 0.66 3 1 C2.01 1.33 1.02 1.66 0 2 C0 1.34 0 0.68 0 0 Z " fill="#757779" transform="translate(245,619)"/>
<path d="M0 0 C0.66 0 1.32 0 2 0 C1.67 0.99 1.34 1.98 1 3 C0.67 2.01 0.34 1.02 0 0 Z " fill="#757779" transform="translate(141,369)"/>
<path d="M0 0 C0.66 0 1.32 0 2 0 C1.67 0.99 1.34 1.98 1 3 C0.67 2.01 0.34 1.02 0 0 Z " fill="#757779" transform="translate(392,349)"/>
<path d="M0 0 C0.99 0.5 0.99 0.5 2 1 C2 1.66 2 2.32 2 3 C1.34 3 0.68 3 0 3 C0 2.01 0 1.02 0 0 Z " fill="#757779" transform="translate(224,329)"/>
<path d="M0 0 C0.66 0 1.32 0 2 0 C2 0.66 2 1.32 2 2 C1.34 2 0.68 2 0 2 C0 1.34 0 0.68 0 0 Z " fill="#757779" transform="translate(156,637)"/>
</svg>
